<?xml version="1.0" encoding="UTF-8"?>
<svg version="1.1" xmlns="http://www.w3.org/2000/svg" width="315" height="291">
<path d="M0 0 C103.95 0 207.9 0 315 0 C315 96.03 315 192.06 315 291 C211.05 291 107.1 291 0 291 C0 194.97 0 98.94 0 0 Z " fill="#000000" transform="translate(0,0)"/>
<path d="M0 0 C25.41 0 50.82 0 77 0 C75.0150961 6.61634633 72.96578482 13.06617682 70.56640625 19.5234375 C70.24719711 20.39086578 69.92798798 21.25829407 69.59910583 22.15200806 C68.58971964 24.89405344 67.5764525 27.63464021 66.5625 30.375 C65.22818469 33.98614099 63.89636629 37.59819037 62.56640625 41.2109375 C62.2491861 42.06983582 61.93196594 42.92873413 61.60513306 43.81365967 C59.51580338 49.50005002 57.57447947 55.20765 55.80444336 61.00244141 C55 63 55 63 53 64 C53 57.4 53 50.8 53 44 C35.51 44 18.02 44 0 44 C0 29.48 0 14.96 0 0 Z " fill="#F6F6F6" transform="translate(76,57)"/>
<path d="M0 0 C0.33 0 0.66 0 1 0 C1 32.34 1 64.68 1 98 C-15.17 98 -31.34 98 -48 98 C-48.20625 93.854375 -48.4125 89.70875 -48.625 85.4375 C-48.71604004 84.16447021 -48.80708008 82.89144043 -48.90087891 81.57983398 C-49.13611931 71.60639963 -45.33657815 65.78975866 -39.59765625 58.16983032 C-36.58371545 54.07649664 -33.81393256 49.81540445 -30.99609375 45.5859375 C-29.74924741 43.73356634 -28.50118581 41.88201265 -27.25195312 40.03125 C-24.70401033 36.25332225 -22.15724002 32.47460912 -19.61132812 28.6953125 C-16.0817468 23.45842936 -12.54496905 18.22647912 -9 13 C-8.50929016 12.27623169 -8.01858032 11.55246338 -7.51300049 10.8067627 C-6.23295627 8.92291978 -4.94794032 7.04261985 -3.66015625 5.1640625 C-2.96672119 4.15037598 -2.27328613 3.13668945 -1.55883789 2.09228516 C-1.04442139 1.40183105 -0.53000488 0.71137695 0 0 Z " fill="#FAFAFA" transform="translate(182,141)"/>
<path d="M0 0 C1.60279191 0.0002511 3.20558923 0.00581279 4.80834961 0.01586914 C5.55435425 0.01687622 6.30035889 0.0178833 7.06896973 0.0189209 C9.86622649 0.0241685 12.6634614 0.03812966 15.46069336 0.05102539 C21.71006836 0.07165039 27.95944336 0.09227539 34.39819336 0.11352539 C34.39819336 14.63352539 34.39819336 29.15352539 34.39819336 44.11352539 C15.91819336 44.11352539 -2.56180664 44.11352539 -21.60180664 44.11352539 C-19.64299714 38.23709688 -17.64451843 32.53517417 -15.28149414 26.83227539 C-14.82530197 25.7229364 -14.82530197 25.7229364 -14.3598938 24.59118652 C-13.72438718 23.04789793 -13.087402 21.50521739 -12.44897461 19.96313477 C-11.46835768 17.5931053 -10.49377662 15.22065526 -9.51977539 12.84790039 C-8.89903565 11.34254603 -8.27795453 9.83733238 -7.65649414 8.33227539 C-7.36483368 7.62196167 -7.07317322 6.91164795 -6.77267456 6.17980957 C-4.26264264 0.13435429 -4.26264264 0.13435429 0 0 Z " fill="#F9F9F9" transform="translate(204.601806640625,56.886474609375)"/>
<path d="M0 0 C7.26 0 14.52 0 22 0 C21.01 3.3 20.02 6.6 19 10 C18.57460937 11.44117188 18.14921875 12.88234375 17.7109375 14.3671875 C14.70437418 24.53561689 11.55001222 34.65270404 8.3125 44.75 C7.93206543 45.93964355 7.55163086 47.12928711 7.15966797 48.35498047 C5.24520272 54.29732549 3.25807036 60.1791964 1 66 C0.67 66 0.34 66 0 66 C0 44.22 0 22.44 0 0 Z " fill="#F7F7F7" transform="translate(134,136)"/>
<path d="M0 0 C12.54 0 25.08 0 38 0 C38 0.33 38 0.66 38 1 C36.92516357 1.02505615 35.85032715 1.0501123 34.74291992 1.07592773 C30.75646978 1.17007495 26.77019091 1.27027785 22.78393555 1.37231445 C21.05839035 1.41563562 19.33280307 1.45731273 17.60717773 1.49731445 C15.12731236 1.55508526 12.64765828 1.61876003 10.16796875 1.68359375 C9.39599655 1.70030624 8.62402435 1.71701874 7.82865906 1.73423767 C4.64817067 1.82227895 2.03764416 1.98745195 -1 3 C-0.67 2.01 -0.34 1.02 0 0 Z " fill="#B7B7B7" transform="translate(201,57)"/>
<path d="M0 0 C0.33 0 0.66 0 1 0 C1 3.3 1 6.6 1 10 C1.66 10 2.32 10 3 10 C2.34 12.64 1.68 15.28 1 18 C0.67 18 0.34 18 0 18 C0 12.06 0 6.12 0 0 Z " fill="#EDEDEC" transform="translate(130,101)"/>
</svg>
